<?xml version="1.0" encoding="UTF-8"?>
<svg id="Layer_1" data-name="Layer 1" xmlns="http://www.w3.org/2000/svg" viewBox="0 0 201.4 196.37">
  <defs>
    <style>
      .cls-1 {
        fill: #fefefe;
      }

      .cls-1, .cls-2, .cls-3, .cls-4, .cls-5 {
        stroke-width: 0px;
      }

      .cls-2 {
        fill: #ec2428;
      }

      .cls-3 {
        fill: #4471b7;
      }

      .cls-4 {
        fill: #3367b1;
      }

      .cls-5 {
        fill: #46b64a;
      }
    </style>
  </defs>
  <path class="cls-1" d="m32.26,91.21c1.25-9.6,3.41-18.91,8.09-27.51,8.37-15.4,20.86-25.93,37.07-32.44,9.22-3.7,13.01-12.6,9.47-21.11-3.15-7.58-10.83-12.82-21.26-8.66C33.84,14.18,12.81,37.05,3.64,70.18c-4.04,14.59-4.77,29.54-1.31,44.4,1.9,8.14,9.31,12.62,17.89,11.59,7.49-.9,13.34-7.59,13.27-15.64-.03-3.46-.8-6.92-1.23-10.38.13-.32.13-.63,0-.95,0-2.35,0-4.69,0-7.04.13-.32.13-.63,0-.95Zm168.93,4.82c.3-6.86-.49-13.46-1.93-19.96-8.05-36.31-29.48-61.28-64.13-74.71-9.29-3.6-18.48.91-21.42,9.68-2.91,8.7,1.57,16.93,10.79,20.52,20.96,8.16,34.95,22.99,41.77,44.45,3.38,10.66,3.38,21.5,1.93,32.54-1.22,9.25,4.48,16.52,12.85,17.73,9.33,1.35,16.69-3.63,18.64-13.07,1.18-5.69,1.86-11.49,1.51-17.18Zm-98.9,100.18c2.88.3,7.49-.47,12.1-1.07,19.39-2.53,36.5-10.32,51.4-22.88,4.65-3.92,6.36-9.2,5.05-15.25-2.49-11.5-16.23-16.76-27.08-8.22-26.52,20.89-59.92,20.57-86.26-.13-7.99-6.28-17.81-5.63-23.46,1.55-6.03,7.67-4.65,17.14,3.53,23.61,18.43,14.58,39.42,22,64.72,22.39Z"/>
  <path class="cls-5" d="m201.19,96.03c.35,5.69-.33,11.49-1.51,17.18-1.95,9.44-9.31,14.42-18.64,13.07-8.37-1.21-14.07-8.47-12.85-17.73,1.45-11.05,1.46-21.88-1.93-32.54-6.81-21.47-20.81-36.29-41.77-44.45-9.22-3.59-13.71-11.83-10.79-20.52,2.94-8.77,12.13-13.28,21.42-9.68,34.64,13.43,56.07,38.4,64.13,74.71,1.44,6.5,2.23,13.11,1.93,19.96Z"/>
  <path class="cls-3" d="m32.25,92.16c0,2.35,0,4.69,0,7.04-.12.09-.36.22-.35.26.08.24.23.46.35.69.43,3.46,1.19,6.91,1.23,10.38.07,8.05-5.77,14.74-13.27,15.64-8.58,1.03-15.99-3.45-17.89-11.59-3.47-14.86-2.73-29.81,1.31-44.4C12.81,37.05,33.84,14.18,65.63,1.49c10.43-4.16,18.12,1.08,21.26,8.66,3.53,8.51-.25,17.4-9.47,21.11-16.21,6.51-28.7,17.04-37.07,32.44-4.68,8.61-6.84,17.92-8.09,27.51-.12.09-.36.22-.35.26.08.24.22.46.35.69Z"/>
  <path class="cls-2" d="m102.29,196.21c-25.3-.39-46.29-7.81-64.72-22.39-8.18-6.47-9.56-15.95-3.53-23.61,5.65-7.18,15.47-7.83,23.46-1.55,26.34,20.69,59.74,21.01,86.26.13,10.85-8.54,24.59-3.28,27.08,8.22,1.31,6.05-.4,11.33-5.05,15.25-14.9,12.56-32,20.35-51.4,22.88-4.61.6-9.22,1.37-12.1,1.07Z"/>
  <path class="cls-4" d="m32.25,92.16c-.12-.23-.27-.45-.35-.69-.01-.04.23-.17.35-.26.13.32.13.63,0,.95Z"/>
  <path class="cls-4" d="m32.26,100.16c-.12-.23-.27-.45-.35-.69-.01-.04.23-.17.35-.26.13.32.13.63,0,.95Z"/>
</svg>